<svg xmlns="http://www.w3.org/2000/svg" width="154.75" height="36.25" viewBox="0 0 154.75 36.25">
  <defs>
    <style>
      .cls-1 {
        fill: #001935;
      }

      .cls-1, .cls-2 {
        fill-rule: evenodd;
      }

      .cls-2 {
        fill: #ff8a00;
      }
    </style>
  </defs>
  <path id="J_bber" data-name="J   bber" class="cls-1" d="M14.705,2.368V26.944a5.152,5.152,0,0,1-1.056,3.36,4.025,4.025,0,0,1-3.312,1.3,4.273,4.273,0,0,1-3.624-1.536,6.966,6.966,0,0,1-1.176-4.32H0.113q0,5.184,2.784,8.016a10.276,10.276,0,0,0,7.68,2.832,9.536,9.536,0,0,0,7.056-2.544,9.6,9.6,0,0,0,2.544-7.1V2.368H14.705Zm52.079,7.1a10.466,10.466,0,0,0-6.144,1.776,9.289,9.289,0,0,0-3.552,4.7V0.736H51.616v35.52h5.472V30.112a9.282,9.282,0,0,0,3.552,4.7,10.46,10.46,0,0,0,6.144,1.776,11.725,11.725,0,0,0,6.168-1.632,11.155,11.155,0,0,0,4.248-4.7,16.028,16.028,0,0,0,1.536-7.248,15.916,15.916,0,0,0-1.536-7.2,11.165,11.165,0,0,0-4.248-4.7,11.732,11.732,0,0,0-6.168-1.632h0Zm-1.68,4.8a7.657,7.657,0,0,1,5.856,2.352,8.955,8.955,0,0,1,2.208,6.384,8.936,8.936,0,0,1-2.208,6.408A7.693,7.693,0,0,1,65.1,31.744a7.947,7.947,0,0,1-4.128-1.08,7.662,7.662,0,0,1-2.88-3.048,9.6,9.6,0,0,1-1.056-4.608A9.639,9.639,0,0,1,58.1,18.424a7.63,7.63,0,0,1,2.88-3.072,7.947,7.947,0,0,1,4.128-1.08h0Zm31.919-4.8a10.466,10.466,0,0,0-6.144,1.776,9.289,9.289,0,0,0-3.552,4.7V0.736H81.855v35.52h5.472V30.112a9.282,9.282,0,0,0,3.552,4.7,10.46,10.46,0,0,0,6.144,1.776,11.724,11.724,0,0,0,6.168-1.632,11.149,11.149,0,0,0,4.248-4.7,16.025,16.025,0,0,0,1.536-7.248,15.914,15.914,0,0,0-1.536-7.2,11.158,11.158,0,0,0-4.248-4.7,11.731,11.731,0,0,0-6.168-1.632h0Zm-1.68,4.8a7.656,7.656,0,0,1,5.856,2.352,8.953,8.953,0,0,1,2.208,6.384,8.934,8.934,0,0,1-2.208,6.408,7.693,7.693,0,0,1-5.856,2.328,7.947,7.947,0,0,1-4.128-1.08,7.662,7.662,0,0,1-2.88-3.048,9.6,9.6,0,0,1-1.056-4.608,9.639,9.639,0,0,1,1.056-4.584,7.63,7.63,0,0,1,2.88-3.072,7.947,7.947,0,0,1,4.128-1.08h0Zm41.328,7.488a12.689,12.689,0,0,0-1.56-6.264,11.2,11.2,0,0,0-4.464-4.416,15.048,15.048,0,0,0-13.584.024,11.606,11.606,0,0,0-4.632,4.7,14.767,14.767,0,0,0-1.68,7.2,14.868,14.868,0,0,0,1.68,7.248,11.6,11.6,0,0,0,4.632,4.7,13.8,13.8,0,0,0,6.792,1.632,14.317,14.317,0,0,0,6-1.224,11.239,11.239,0,0,0,6.576-8.328h-5.856a5.75,5.75,0,0,1-2.328,3.7,7.61,7.61,0,0,1-4.632,1.392,7.377,7.377,0,0,1-5.232-1.968q-2.113-1.968-2.256-6.048h20.352a12.785,12.785,0,0,0,.192-2.352h0Zm-5.52-.144H116.127a8.038,8.038,0,0,1,2.352-5.808,7.682,7.682,0,0,1,5.376-1.968,8.307,8.307,0,0,1,3.72.84,6.187,6.187,0,0,1,2.688,2.592,8.152,8.152,0,0,1,.888,4.344h0Zm14.111-6.624V9.808H139.79V36.256h5.472V22.864q0-4.032,2.184-5.784a8.971,8.971,0,0,1,5.784-1.752h1.632V9.376a10.9,10.9,0,0,0-5.76,1.512,10.2,10.2,0,0,0-3.84,4.1h0Z" transform="translate(-0.125 -0.75)"/>
  <path id="Forma_1" data-name="Forma 1" class="cls-2" d="M30.392,23.709a0.911,0.911,0,0,1,.941-0.876H32.38a0.572,0.572,0,0,1,.464.224l1.544,2.032,0.376-.738-0.6-1.172a0.244,0.244,0,0,1,.234-0.347h1.2a0.243,0.243,0,0,1,.234.347l-0.6,1.172L35.6,25.076l1.5-2.013a0.585,0.585,0,0,1,.467-0.23h1.1a0.911,0.911,0,0,1,.942.876v2.825s-2.3,2-4.6,2-4.619-2-4.619-2V23.709h0ZM35,22.276a2.938,2.938,0,0,1-3.034-2.822,3.042,3.042,0,0,1,6.069,0A2.938,2.938,0,0,1,35,22.276Z" transform="translate(-0.125 -0.75)"/>
  <path id="Forma_1-2" data-name="Forma 1" class="cls-2" d="M48.254,32.752l-2.548-2.288a11.9,11.9,0,0,1-3.9,3.24c1.1,1.1,2.853,2.568,2.853,2.568A2.514,2.514,0,0,0,48.254,32.752Zm-19.729.806a13.385,13.385,0,0,0,13.325.16,13.47,13.47,0,0,0,1.2-.756c0.108-.075.216-0.153,0.321-0.232a13.159,13.159,0,0,0,3.4-3.774,13.167,13.167,0,0,0,1.409-10.186c-0.062-.231-0.131-0.463-0.208-0.689a13.121,13.121,0,0,0-2.043-3.857,13.36,13.36,0,0,0-21.663.617c-0.132.2-.265,0.4-0.387,0.607a13.119,13.119,0,0,0,.843,14.731A13.34,13.34,0,0,0,28.525,33.558ZM29.645,16.4c0.072-.068.144-0.136,0.218-0.2,0.172-.153.348-0.3,0.536-0.439a8.241,8.241,0,0,1,11.488,1.569q0.226,0.3.423,0.607c0.043,0.071.087,0.139,0.13,0.213a8.1,8.1,0,0,1-2.13,10.582,8.237,8.237,0,0,1-11.485-1.568A8.105,8.105,0,0,1,29.645,16.4Z" transform="translate(-0.125 -0.75)"/>
</svg>
