<svg width="154.75" height="36.25" xmlns="http://www.w3.org/2000/svg">
 <defs>
  <style>.cls-1 {
        fill: #fff;
      }

      .cls-1, .cls-2 {
        fill-rule: evenodd;
      }

      .cls-2 {
        fill: #ff8a00;
      }</style>
 </defs>
 <g>
  <title>background</title>
  <rect fill="none" id="canvas_background" height="602" width="802" y="-1" x="-1"/>
 </g>
 <g>
  <title>Layer 1</title>
  <path stroke="null" d="m98.48074,18.91561a0.66396,0.63779 0 0 1 0.68582,-0.61328l0.76308,0a0.41689,0.40045 0 0 1 0.33817,0.15682l1.1253,1.42259l0.27404,-0.51667l-0.43729,-0.82051a0.17783,0.17082 0 0 1 0.17054,-0.24293l0.87459,0a0.1771,0.17012 0 0 1 0.17054,0.24293l-0.43729,0.82051l0.26821,0.50757l1.09323,-1.40929a0.42636,0.40955 0 0 1 0.34036,-0.16102l0.8017,0a0.66396,0.63779 0 0 1 0.68655,0.61328l0,1.97777s-1.67629,1.40019 -3.35258,1.40019s-3.36642,-1.40019 -3.36642,-1.40019l0,-1.97777l0,0l0.00146,0zm3.35841,-1.00323a2.14128,2.05688 0 0 1 -2.21124,-1.97567a2.21707,2.12969 0 0 1 4.42321,0a2.14128,2.05688 0 0 1 -2.21197,1.97567z" class="cls-2" id="Forma_1"/>
  <path stroke="null" d="m111.50502,25.14041l-1.97419,-1.64695a9.22014,8.56588 0 0 1 -3.02173,2.33222c0.85228,0.7918 2.21051,1.8485 2.21051,1.8485a1.94785,1.80963 0 0 0 2.78541,-2.53377zm-15.28606,0.58018a10.37072,9.63482 0 0 0 10.32423,0.11517a10.43658,9.69601 0 0 0 0.92976,-0.54419c0.08368,-0.05399 0.16736,-0.11013 0.24871,-0.167a10.19561,9.47214 0 0 0 2.63433,-2.71661a10.20181,9.4779 0 0 0 1.0917,-7.33211c-0.04804,-0.16628 -0.1015,-0.33328 -0.16116,-0.49596a10.16617,9.44479 0 0 0 -1.58292,-2.77635a10.35135,9.61682 0 0 0 -16.78453,0.44413c-0.10227,0.14396 -0.20532,0.28793 -0.29985,0.43693a10.16462,9.44335 0 0 0 0.65316,10.6037a10.33585,9.60243 0 0 0 2.94657,2.43228zm0.86778,-12.35071c0.05579,-0.04895 0.11157,-0.0979 0.16891,-0.14396c0.13327,-0.11013 0.26963,-0.21595 0.41529,-0.316a6.38514,5.93205 0 0 1 8.90092,1.1294q0.17511,0.21595 0.32774,0.43693c0.03332,0.05111 0.06741,0.10006 0.10072,0.15332a6.27589,5.83056 0 0 1 -1.65033,7.61716a6.38204,5.92918 0 0 1 -8.8986,-1.12868a6.27977,5.83416 0 0 1 0.63534,-7.74817z" class="cls-2" id="Forma_1-2"/>
  <text font-weight="bold" xml:space="preserve" text-anchor="start" font-family="Helvetica, Arial, sans-serif" font-size="26" id="svg_1" y="27.2288" x="2.01787" stroke-opacity="null" stroke-width="0" stroke="null" fill="#ffffff">AnderJ</text>
  <text font-weight="bold" xml:space="preserve" text-anchor="start" font-family="Helvetica, Arial, sans-serif" font-size="26" id="svg_3" y="27.22879" x="114.51787" stroke-opacity="null" stroke-width="0" stroke="null" fill="#ffffff">bs</text>
 </g>
</svg>